<?xml version="1.0" encoding="UTF-8" standalone="no"?>
<!DOCTYPE svg PUBLIC "-//W3C//DTD SVG 1.1//EN"
 "http://www.w3.org/Graphics/SVG/1.1/DTD/svg11.dtd">
<!-- Generated by graphviz version 2.40.1 (20161225.0304)
 -->
<!-- Title: %3 Pages: 1 -->
<svg width="917pt" height="638pt"
 viewBox="0.00 0.00 917.43 638.00" xmlns="http://www.w3.org/2000/svg" xmlns:xlink="http://www.w3.org/1999/xlink">
<g id="graph0" class="graph" transform="scale(1 1) rotate(0) translate(4 634)">
<title>%3</title>
<polygon fill="#ffffff" stroke="transparent" points="-4,4 -4,-634 913.4337,-634 913.4337,4 -4,4"/>
<!-- root&#45;os&#45;u18 patched -->
<g id="node1" class="node">
<title>root&#45;os&#45;u18 patched</title>
<ellipse fill="none" stroke="#000000" cx="171.2428" cy="-423" rx="81.4863" ry="18"/>
<text text-anchor="middle" x="171.2428" y="-419.3" font-family="Times,serif" font-size="14.00" fill="#000000">root&#45;os&#45;u18 patched</text>
</g>
<!-- root&#45;os&#45;u18 patched&#45;nginx&#45;1.13 -->
<g id="node3" class="node">
<title>root&#45;os&#45;u18 patched&#45;nginx&#45;1.13</title>
<ellipse fill="none" stroke="#000000" cx="411.3247" cy="-558" rx="122.6784" ry="18"/>
<text text-anchor="middle" x="411.3247" y="-554.3" font-family="Times,serif" font-size="14.00" fill="#000000">root&#45;os&#45;u18 patched&#45;nginx&#45;1.13</text>
</g>
<!-- root&#45;os&#45;u18 patched&#45;&gt;root&#45;os&#45;u18 patched&#45;nginx&#45;1.13 -->
<g id="edge2" class="edge">
<title>root&#45;os&#45;u18 patched&#45;&gt;root&#45;os&#45;u18 patched&#45;nginx&#45;1.13</title>
<path fill="none" stroke="#000000" d="M201.1639,-439.8249C244.1482,-463.9953 323.4633,-508.5949 371.4047,-535.5526"/>
<polygon fill="#000000" stroke="#000000" points="369.8329,-538.6842 380.2649,-540.5348 373.2639,-532.5827 369.8329,-538.6842"/>
</g>
<!-- root&#45;os&#45;u18 patched&#45;nginx&#45;1.19 -->
<g id="node6" class="node">
<title>root&#45;os&#45;u18 patched&#45;nginx&#45;1.19</title>
<ellipse fill="none" stroke="#000000" cx="411.3247" cy="-450" rx="122.6784" ry="18"/>
<text text-anchor="middle" x="411.3247" y="-446.3" font-family="Times,serif" font-size="14.00" fill="#000000">root&#45;os&#45;u18 patched&#45;nginx&#45;1.19</text>
</g>
<!-- root&#45;os&#45;u18 patched&#45;&gt;root&#45;os&#45;u18 patched&#45;nginx&#45;1.19 -->
<g id="edge5" class="edge">
<title>root&#45;os&#45;u18 patched&#45;&gt;root&#45;os&#45;u18 patched&#45;nginx&#45;1.19</title>
<path fill="none" stroke="#000000" d="M243.9268,-431.1742C262.6992,-433.2853 283.3117,-435.6035 303.4618,-437.8696"/>
<polygon fill="#000000" stroke="#000000" points="303.2956,-441.3729 313.6242,-439.0124 304.078,-434.4167 303.2956,-441.3729"/>
</g>
<!-- root&#45;os&#45;u18 patched&#45;nginx&#45;1.21 -->
<g id="node9" class="node">
<title>root&#45;os&#45;u18 patched&#45;nginx&#45;1.21</title>
<ellipse fill="none" stroke="#000000" cx="411.3247" cy="-396" rx="122.6784" ry="18"/>
<text text-anchor="middle" x="411.3247" y="-392.3" font-family="Times,serif" font-size="14.00" fill="#000000">root&#45;os&#45;u18 patched&#45;nginx&#45;1.21</text>
</g>
<!-- root&#45;os&#45;u18 patched&#45;&gt;root&#45;os&#45;u18 patched&#45;nginx&#45;1.21 -->
<g id="edge8" class="edge">
<title>root&#45;os&#45;u18 patched&#45;&gt;root&#45;os&#45;u18 patched&#45;nginx&#45;1.21</title>
<path fill="none" stroke="#000000" d="M243.9268,-414.8258C262.6992,-412.7147 283.3117,-410.3965 303.4618,-408.1304"/>
<polygon fill="#000000" stroke="#000000" points="304.078,-411.5833 313.6242,-406.9876 303.2956,-404.6271 304.078,-411.5833"/>
</g>
<!-- root -->
<g id="node2" class="node">
<title>root</title>
<ellipse fill="none" stroke="#000000" cx="27" cy="-288" rx="27" ry="18"/>
<text text-anchor="middle" x="27" y="-284.3" font-family="Times,serif" font-size="14.00" fill="#000000">root</text>
</g>
<!-- root&#45;&gt;root&#45;os&#45;u18 patched -->
<g id="edge1" class="edge">
<title>root&#45;&gt;root&#45;os&#45;u18 patched</title>
<path fill="none" stroke="#000000" d="M42.7111,-302.7044C67.243,-325.6643 114.9253,-370.2912 144.8117,-398.2625"/>
<polygon fill="#000000" stroke="#000000" points="142.6754,-401.057 152.3682,-405.3349 147.4587,-395.9462 142.6754,-401.057"/>
</g>
<!-- root&#45;os&#45;u20 -->
<g id="node12" class="node">
<title>root&#45;os&#45;u20</title>
<ellipse fill="none" stroke="#000000" cx="171.2428" cy="-207" rx="51.9908" ry="18"/>
<text text-anchor="middle" x="171.2428" y="-203.3" font-family="Times,serif" font-size="14.00" fill="#000000">root&#45;os&#45;u20</text>
</g>
<!-- root&#45;&gt;root&#45;os&#45;u20 -->
<g id="edge11" class="edge">
<title>root&#45;&gt;root&#45;os&#45;u20</title>
<path fill="none" stroke="#000000" d="M47.6665,-276.3947C70.3425,-263.6609 107.1788,-242.9753 134.7442,-227.4959"/>
<polygon fill="#000000" stroke="#000000" points="136.6976,-230.4131 143.7032,-222.465 133.2701,-224.3096 136.6976,-230.4131"/>
</g>
<!-- root&#45;os&#45;u18 patched&#45;nginx&#45;1.13&#45;nodejs&#45;8.9.4 -->
<g id="node4" class="node">
<title>root&#45;os&#45;u18 patched&#45;nginx&#45;1.13&#45;nodejs&#45;8.9.4</title>
<ellipse fill="none" stroke="#000000" cx="739.7987" cy="-612" rx="169.77" ry="18"/>
<text text-anchor="middle" x="739.7987" y="-608.3" font-family="Times,serif" font-size="14.00" fill="#000000">root&#45;os&#45;u18 patched&#45;nginx&#45;1.13&#45;nodejs&#45;8.9.4</text>
</g>
<!-- root&#45;os&#45;u18 patched&#45;nginx&#45;1.13&#45;&gt;root&#45;os&#45;u18 patched&#45;nginx&#45;1.13&#45;nodejs&#45;8.9.4 -->
<g id="edge3" class="edge">
<title>root&#45;os&#45;u18 patched&#45;nginx&#45;1.13&#45;&gt;root&#45;os&#45;u18 patched&#45;nginx&#45;1.13&#45;nodejs&#45;8.9.4</title>
<path fill="none" stroke="#000000" d="M491.288,-571.7614C516.514,-576.0574 544.4953,-580.7757 570.1638,-585 590.9938,-588.428 613.2748,-592.0247 634.6116,-595.4346"/>
<polygon fill="#000000" stroke="#000000" points="634.2419,-598.9198 644.6684,-597.0393 635.3449,-592.0073 634.2419,-598.9198"/>
</g>
<!-- root&#45;os&#45;u18 patched&#45;nginx&#45;1.13&#45;nodejs&#45;lts -->
<g id="node5" class="node">
<title>root&#45;os&#45;u18 patched&#45;nginx&#45;1.13&#45;nodejs&#45;lts</title>
<ellipse fill="none" stroke="#000000" cx="739.7987" cy="-558" rx="159.7717" ry="18"/>
<text text-anchor="middle" x="739.7987" y="-554.3" font-family="Times,serif" font-size="14.00" fill="#000000">root&#45;os&#45;u18 patched&#45;nginx&#45;1.13&#45;nodejs&#45;lts</text>
</g>
<!-- root&#45;os&#45;u18 patched&#45;nginx&#45;1.13&#45;&gt;root&#45;os&#45;u18 patched&#45;nginx&#45;1.13&#45;nodejs&#45;lts -->
<g id="edge4" class="edge">
<title>root&#45;os&#45;u18 patched&#45;nginx&#45;1.13&#45;&gt;root&#45;os&#45;u18 patched&#45;nginx&#45;1.13&#45;nodejs&#45;lts</title>
<path fill="none" stroke="#000000" d="M534.5708,-558C545.9755,-558 557.6619,-558 569.3904,-558"/>
<polygon fill="#000000" stroke="#000000" points="569.702,-561.5001 579.702,-558 569.7019,-554.5001 569.702,-561.5001"/>
</g>
<!-- root&#45;os&#45;u18 patched&#45;nginx&#45;1.19&#45;nodejs&#45;8.9.4 -->
<g id="node7" class="node">
<title>root&#45;os&#45;u18 patched&#45;nginx&#45;1.19&#45;nodejs&#45;8.9.4</title>
<ellipse fill="none" stroke="#000000" cx="739.7987" cy="-504" rx="169.77" ry="18"/>
<text text-anchor="middle" x="739.7987" y="-500.3" font-family="Times,serif" font-size="14.00" fill="#000000">root&#45;os&#45;u18 patched&#45;nginx&#45;1.19&#45;nodejs&#45;8.9.4</text>
</g>
<!-- root&#45;os&#45;u18 patched&#45;nginx&#45;1.19&#45;&gt;root&#45;os&#45;u18 patched&#45;nginx&#45;1.19&#45;nodejs&#45;8.9.4 -->
<g id="edge6" class="edge">
<title>root&#45;os&#45;u18 patched&#45;nginx&#45;1.19&#45;&gt;root&#45;os&#45;u18 patched&#45;nginx&#45;1.19&#45;nodejs&#45;8.9.4</title>
<path fill="none" stroke="#000000" d="M491.288,-463.7614C516.514,-468.0574 544.4953,-472.7757 570.1638,-477 590.9938,-480.428 613.2748,-484.0247 634.6116,-487.4346"/>
<polygon fill="#000000" stroke="#000000" points="634.2419,-490.9198 644.6684,-489.0393 635.3449,-484.0073 634.2419,-490.9198"/>
</g>
<!-- root&#45;os&#45;u18 patched&#45;nginx&#45;1.19&#45;nodejs&#45;lts -->
<g id="node8" class="node">
<title>root&#45;os&#45;u18 patched&#45;nginx&#45;1.19&#45;nodejs&#45;lts</title>
<ellipse fill="none" stroke="#000000" cx="739.7987" cy="-450" rx="159.7717" ry="18"/>
<text text-anchor="middle" x="739.7987" y="-446.3" font-family="Times,serif" font-size="14.00" fill="#000000">root&#45;os&#45;u18 patched&#45;nginx&#45;1.19&#45;nodejs&#45;lts</text>
</g>
<!-- root&#45;os&#45;u18 patched&#45;nginx&#45;1.19&#45;&gt;root&#45;os&#45;u18 patched&#45;nginx&#45;1.19&#45;nodejs&#45;lts -->
<g id="edge7" class="edge">
<title>root&#45;os&#45;u18 patched&#45;nginx&#45;1.19&#45;&gt;root&#45;os&#45;u18 patched&#45;nginx&#45;1.19&#45;nodejs&#45;lts</title>
<path fill="none" stroke="#000000" d="M534.5708,-450C545.9755,-450 557.6619,-450 569.3904,-450"/>
<polygon fill="#000000" stroke="#000000" points="569.702,-453.5001 579.702,-450 569.7019,-446.5001 569.702,-453.5001"/>
</g>
<!-- root&#45;os&#45;u18 patched&#45;nginx&#45;1.21&#45;nodejs&#45;8.9.4 -->
<g id="node10" class="node">
<title>root&#45;os&#45;u18 patched&#45;nginx&#45;1.21&#45;nodejs&#45;8.9.4</title>
<ellipse fill="none" stroke="#000000" cx="739.7987" cy="-396" rx="169.77" ry="18"/>
<text text-anchor="middle" x="739.7987" y="-392.3" font-family="Times,serif" font-size="14.00" fill="#000000">root&#45;os&#45;u18 patched&#45;nginx&#45;1.21&#45;nodejs&#45;8.9.4</text>
</g>
<!-- root&#45;os&#45;u18 patched&#45;nginx&#45;1.21&#45;&gt;root&#45;os&#45;u18 patched&#45;nginx&#45;1.21&#45;nodejs&#45;8.9.4 -->
<g id="edge9" class="edge">
<title>root&#45;os&#45;u18 patched&#45;nginx&#45;1.21&#45;&gt;root&#45;os&#45;u18 patched&#45;nginx&#45;1.21&#45;nodejs&#45;8.9.4</title>
<path fill="none" stroke="#000000" d="M534.5708,-396C542.9448,-396 551.4706,-396 560.0535,-396"/>
<polygon fill="#000000" stroke="#000000" points="560.1495,-399.5001 570.1495,-396 560.1495,-392.5001 560.1495,-399.5001"/>
</g>
<!-- root&#45;os&#45;u18 patched&#45;nginx&#45;1.21&#45;nodejs&#45;lts -->
<g id="node11" class="node">
<title>root&#45;os&#45;u18 patched&#45;nginx&#45;1.21&#45;nodejs&#45;lts</title>
<ellipse fill="none" stroke="#000000" cx="739.7987" cy="-342" rx="159.7717" ry="18"/>
<text text-anchor="middle" x="739.7987" y="-338.3" font-family="Times,serif" font-size="14.00" fill="#000000">root&#45;os&#45;u18 patched&#45;nginx&#45;1.21&#45;nodejs&#45;lts</text>
</g>
<!-- root&#45;os&#45;u18 patched&#45;nginx&#45;1.21&#45;&gt;root&#45;os&#45;u18 patched&#45;nginx&#45;1.21&#45;nodejs&#45;lts -->
<g id="edge10" class="edge">
<title>root&#45;os&#45;u18 patched&#45;nginx&#45;1.21&#45;&gt;root&#45;os&#45;u18 patched&#45;nginx&#45;1.21&#45;nodejs&#45;lts</title>
<path fill="none" stroke="#000000" d="M491.288,-382.2386C516.514,-377.9426 544.4953,-373.2243 570.1638,-369 591.5984,-365.4725 614.5694,-361.7664 636.4671,-358.2689"/>
<polygon fill="#000000" stroke="#000000" points="637.1192,-361.7092 646.4433,-356.6781 636.0168,-354.7966 637.1192,-361.7092"/>
</g>
<!-- root&#45;os&#45;u20&#45;nginx&#45;1.13 -->
<g id="node13" class="node">
<title>root&#45;os&#45;u20&#45;nginx&#45;1.13</title>
<ellipse fill="none" stroke="#000000" cx="411.3247" cy="-234" rx="92.8835" ry="18"/>
<text text-anchor="middle" x="411.3247" y="-230.3" font-family="Times,serif" font-size="14.00" fill="#000000">root&#45;os&#45;u20&#45;nginx&#45;1.13</text>
</g>
<!-- root&#45;os&#45;u20&#45;&gt;root&#45;os&#45;u20&#45;nginx&#45;1.13 -->
<g id="edge12" class="edge">
<title>root&#45;os&#45;u20&#45;&gt;root&#45;os&#45;u20&#45;nginx&#45;1.13</title>
<path fill="none" stroke="#000000" d="M220.6968,-212.5617C249.5567,-215.8073 286.8589,-220.0024 320.8035,-223.8198"/>
<polygon fill="#000000" stroke="#000000" points="320.4178,-227.2984 330.7463,-224.938 321.2001,-220.3423 320.4178,-227.2984"/>
</g>
<!-- root&#45;os&#45;u20&#45;nginx&#45;1.19 -->
<g id="node16" class="node">
<title>root&#45;os&#45;u20&#45;nginx&#45;1.19</title>
<ellipse fill="none" stroke="#000000" cx="411.3247" cy="-180" rx="92.8835" ry="18"/>
<text text-anchor="middle" x="411.3247" y="-176.3" font-family="Times,serif" font-size="14.00" fill="#000000">root&#45;os&#45;u20&#45;nginx&#45;1.19</text>
</g>
<!-- root&#45;os&#45;u20&#45;&gt;root&#45;os&#45;u20&#45;nginx&#45;1.19 -->
<g id="edge15" class="edge">
<title>root&#45;os&#45;u20&#45;&gt;root&#45;os&#45;u20&#45;nginx&#45;1.19</title>
<path fill="none" stroke="#000000" d="M220.6968,-201.4383C249.5567,-198.1927 286.8589,-193.9976 320.8035,-190.1802"/>
<polygon fill="#000000" stroke="#000000" points="321.2001,-193.6577 330.7463,-189.062 320.4178,-186.7016 321.2001,-193.6577"/>
</g>
<!-- root&#45;os&#45;u20&#45;nginx&#45;1.21 -->
<g id="node19" class="node">
<title>root&#45;os&#45;u20&#45;nginx&#45;1.21</title>
<ellipse fill="none" stroke="#000000" cx="411.3247" cy="-72" rx="92.8835" ry="18"/>
<text text-anchor="middle" x="411.3247" y="-68.3" font-family="Times,serif" font-size="14.00" fill="#000000">root&#45;os&#45;u20&#45;nginx&#45;1.21</text>
</g>
<!-- root&#45;os&#45;u20&#45;&gt;root&#45;os&#45;u20&#45;nginx&#45;1.21 -->
<g id="edge18" class="edge">
<title>root&#45;os&#45;u20&#45;&gt;root&#45;os&#45;u20&#45;nginx&#45;1.21</title>
<path fill="none" stroke="#000000" d="M198.7832,-191.5138C241.2488,-167.635 322.9018,-121.7209 371.7083,-94.2766"/>
<polygon fill="#000000" stroke="#000000" points="373.7153,-97.1635 380.7163,-89.2114 370.2843,-91.062 373.7153,-97.1635"/>
</g>
<!-- root&#45;os&#45;u20&#45;nginx&#45;1.13&#45;nodejs&#45;8.9.4 -->
<g id="node14" class="node">
<title>root&#45;os&#45;u20&#45;nginx&#45;1.13&#45;nodejs&#45;8.9.4</title>
<ellipse fill="none" stroke="#000000" cx="739.7987" cy="-288" rx="139.9756" ry="18"/>
<text text-anchor="middle" x="739.7987" y="-284.3" font-family="Times,serif" font-size="14.00" fill="#000000">root&#45;os&#45;u20&#45;nginx&#45;1.13&#45;nodejs&#45;8.9.4</text>
</g>
<!-- root&#45;os&#45;u20&#45;nginx&#45;1.13&#45;&gt;root&#45;os&#45;u20&#45;nginx&#45;1.13&#45;nodejs&#45;8.9.4 -->
<g id="edge13" class="edge">
<title>root&#45;os&#45;u20&#45;nginx&#45;1.13&#45;&gt;root&#45;os&#45;u20&#45;nginx&#45;1.13&#45;nodejs&#45;8.9.4</title>
<path fill="none" stroke="#000000" d="M480.8846,-245.9872C508.6461,-250.7286 540.9072,-256.1853 570.1638,-261 592.9765,-264.7543 617.5297,-268.7109 640.6769,-272.403"/>
<polygon fill="#000000" stroke="#000000" points="640.4244,-275.9068 650.8505,-274.0232 641.5254,-268.9939 640.4244,-275.9068"/>
</g>
<!-- root&#45;os&#45;u20&#45;nginx&#45;1.13&#45;nodejs&#45;lts -->
<g id="node15" class="node">
<title>root&#45;os&#45;u20&#45;nginx&#45;1.13&#45;nodejs&#45;lts</title>
<ellipse fill="none" stroke="#000000" cx="739.7987" cy="-234" rx="129.9769" ry="18"/>
<text text-anchor="middle" x="739.7987" y="-230.3" font-family="Times,serif" font-size="14.00" fill="#000000">root&#45;os&#45;u20&#45;nginx&#45;1.13&#45;nodejs&#45;lts</text>
</g>
<!-- root&#45;os&#45;u20&#45;nginx&#45;1.13&#45;&gt;root&#45;os&#45;u20&#45;nginx&#45;1.13&#45;nodejs&#45;lts -->
<g id="edge14" class="edge">
<title>root&#45;os&#45;u20&#45;nginx&#45;1.13&#45;&gt;root&#45;os&#45;u20&#45;nginx&#45;1.13&#45;nodejs&#45;lts</title>
<path fill="none" stroke="#000000" d="M504.5735,-234C534.011,-234 567.2161,-234 599.1998,-234"/>
<polygon fill="#000000" stroke="#000000" points="599.5348,-237.5001 609.5348,-234 599.5348,-230.5001 599.5348,-237.5001"/>
</g>
<!-- root&#45;os&#45;u20&#45;nginx&#45;1.19&#45;nodejs&#45;8.9.4 -->
<g id="node17" class="node">
<title>root&#45;os&#45;u20&#45;nginx&#45;1.19&#45;nodejs&#45;8.9.4</title>
<ellipse fill="none" stroke="#000000" cx="739.7987" cy="-180" rx="139.9756" ry="18"/>
<text text-anchor="middle" x="739.7987" y="-176.3" font-family="Times,serif" font-size="14.00" fill="#000000">root&#45;os&#45;u20&#45;nginx&#45;1.19&#45;nodejs&#45;8.9.4</text>
</g>
<!-- root&#45;os&#45;u20&#45;nginx&#45;1.19&#45;&gt;root&#45;os&#45;u20&#45;nginx&#45;1.19&#45;nodejs&#45;8.9.4 -->
<g id="edge16" class="edge">
<title>root&#45;os&#45;u20&#45;nginx&#45;1.19&#45;&gt;root&#45;os&#45;u20&#45;nginx&#45;1.19&#45;nodejs&#45;8.9.4</title>
<path fill="none" stroke="#000000" d="M504.5735,-180C531.1263,-180 560.7445,-180 589.7666,-180"/>
<polygon fill="#000000" stroke="#000000" points="590.0013,-183.5001 600.0013,-180 590.0012,-176.5001 590.0013,-183.5001"/>
</g>
<!-- root&#45;os&#45;u20&#45;nginx&#45;1.19&#45;nodejs&#45;lts -->
<g id="node18" class="node">
<title>root&#45;os&#45;u20&#45;nginx&#45;1.19&#45;nodejs&#45;lts</title>
<ellipse fill="none" stroke="#000000" cx="739.7987" cy="-126" rx="129.9769" ry="18"/>
<text text-anchor="middle" x="739.7987" y="-122.3" font-family="Times,serif" font-size="14.00" fill="#000000">root&#45;os&#45;u20&#45;nginx&#45;1.19&#45;nodejs&#45;lts</text>
</g>
<!-- root&#45;os&#45;u20&#45;nginx&#45;1.19&#45;&gt;root&#45;os&#45;u20&#45;nginx&#45;1.19&#45;nodejs&#45;lts -->
<g id="edge17" class="edge">
<title>root&#45;os&#45;u20&#45;nginx&#45;1.19&#45;&gt;root&#45;os&#45;u20&#45;nginx&#45;1.19&#45;nodejs&#45;lts</title>
<path fill="none" stroke="#000000" d="M480.8846,-168.0128C508.6461,-163.2714 540.9072,-157.8147 570.1638,-153 593.8512,-149.1018 619.4151,-144.9854 643.3332,-141.1735"/>
<polygon fill="#000000" stroke="#000000" points="644.147,-144.5881 653.4727,-139.56 643.0469,-137.6751 644.147,-144.5881"/>
</g>
<!-- root&#45;os&#45;u20&#45;nginx&#45;1.21&#45;nodejs&#45;8.9.4 -->
<g id="node20" class="node">
<title>root&#45;os&#45;u20&#45;nginx&#45;1.21&#45;nodejs&#45;8.9.4</title>
<ellipse fill="none" stroke="#000000" cx="739.7987" cy="-72" rx="139.9756" ry="18"/>
<text text-anchor="middle" x="739.7987" y="-68.3" font-family="Times,serif" font-size="14.00" fill="#000000">root&#45;os&#45;u20&#45;nginx&#45;1.21&#45;nodejs&#45;8.9.4</text>
</g>
<!-- root&#45;os&#45;u20&#45;nginx&#45;1.21&#45;&gt;root&#45;os&#45;u20&#45;nginx&#45;1.21&#45;nodejs&#45;8.9.4 -->
<g id="edge19" class="edge">
<title>root&#45;os&#45;u20&#45;nginx&#45;1.21&#45;&gt;root&#45;os&#45;u20&#45;nginx&#45;1.21&#45;nodejs&#45;8.9.4</title>
<path fill="none" stroke="#000000" d="M504.5735,-72C531.1263,-72 560.7445,-72 589.7666,-72"/>
<polygon fill="#000000" stroke="#000000" points="590.0013,-75.5001 600.0013,-72 590.0012,-68.5001 590.0013,-75.5001"/>
</g>
<!-- root&#45;os&#45;u20&#45;nginx&#45;1.21&#45;nodejs&#45;lts -->
<g id="node21" class="node">
<title>root&#45;os&#45;u20&#45;nginx&#45;1.21&#45;nodejs&#45;lts</title>
<ellipse fill="none" stroke="#000000" cx="739.7987" cy="-18" rx="129.9769" ry="18"/>
<text text-anchor="middle" x="739.7987" y="-14.3" font-family="Times,serif" font-size="14.00" fill="#000000">root&#45;os&#45;u20&#45;nginx&#45;1.21&#45;nodejs&#45;lts</text>
</g>
<!-- root&#45;os&#45;u20&#45;nginx&#45;1.21&#45;&gt;root&#45;os&#45;u20&#45;nginx&#45;1.21&#45;nodejs&#45;lts -->
<g id="edge20" class="edge">
<title>root&#45;os&#45;u20&#45;nginx&#45;1.21&#45;&gt;root&#45;os&#45;u20&#45;nginx&#45;1.21&#45;nodejs&#45;lts</title>
<path fill="none" stroke="#000000" d="M480.8846,-60.0128C508.6461,-55.2714 540.9072,-49.8147 570.1638,-45 593.8512,-41.1018 619.4151,-36.9854 643.3332,-33.1735"/>
<polygon fill="#000000" stroke="#000000" points="644.147,-36.5881 653.4727,-31.56 643.0469,-29.6751 644.147,-36.5881"/>
</g>
</g>
</svg>
